<svg width="489" height="442" viewBox="0 0 489 442" fill="none" xmlns="http://www.w3.org/2000/svg">
<g clip-path="url(#clip0_40_160)">
<path d="M431.02 27.4159H0.675861C0.495246 27.4116 0.323382 27.3314 0.197061 27.1924C0.0707405 27.0534 0 26.8667 0 26.6723C0 26.4778 0.0707405 26.2911 0.197061 26.1521C0.323382 26.0131 0.495246 25.9329 0.675861 25.9286H431.02C431.201 25.9329 431.372 26.0131 431.499 26.1521C431.625 26.2911 431.696 26.4778 431.696 26.6723C431.696 26.8667 431.625 27.0534 431.499 27.1924C431.372 27.3314 431.201 27.4116 431.02 27.4159Z" fill="#CACACA"/>
<path d="M15.8906 17.0045C19.9971 17.0045 23.3261 13.3421 23.3261 8.82421C23.3261 4.30636 19.9971 0.643921 15.8906 0.643921C11.7841 0.643921 8.45508 4.30636 8.45508 8.82421C8.45508 13.3421 11.7841 17.0045 15.8906 17.0045Z" fill="#3F3D56"/>
<path d="M41.5766 17.0045C45.6832 17.0045 49.0122 13.3421 49.0122 8.82421C49.0122 4.30636 45.6832 0.643921 41.5766 0.643921C37.4701 0.643921 34.1411 4.30636 34.1411 8.82421C34.1411 13.3421 37.4701 17.0045 41.5766 17.0045Z" fill="#3F3D56"/>
<path d="M67.2632 17.0045C71.3697 17.0045 74.6987 13.3421 74.6987 8.82421C74.6987 4.30636 71.3697 0.643921 67.2632 0.643921C63.1566 0.643921 59.8276 4.30636 59.8276 8.82421C59.8276 13.3421 63.1566 17.0045 67.2632 17.0045Z" fill="#3F3D56"/>
<path d="M415.628 2.67151H397.381C397.02 2.67924 396.675 2.83928 396.422 3.11727C396.169 3.39526 396.027 3.76903 396.027 4.15833C396.027 4.54762 396.169 4.92139 396.422 5.19938C396.675 5.47737 397.02 5.63742 397.381 5.64514H415.628C415.989 5.63742 416.334 5.47737 416.587 5.19938C416.84 4.92139 416.982 4.54762 416.982 4.15833C416.982 3.76903 416.84 3.39526 416.587 3.11727C416.334 2.83928 415.989 2.67924 415.628 2.67151Z" fill="#3F3D56"/>
<path d="M415.628 8.25256H397.381C397.02 8.26029 396.675 8.42033 396.422 8.69832C396.169 8.97632 396.027 9.3501 396.027 9.73939C396.027 10.1287 396.169 10.5025 396.422 10.7804C396.675 11.0584 397.02 11.2185 397.381 11.2262H415.628C415.989 11.2185 416.334 11.0584 416.587 10.7804C416.84 10.5025 416.982 10.1287 416.982 9.73939C416.982 9.3501 416.84 8.97632 416.587 8.69832C416.334 8.42033 415.989 8.26029 415.628 8.25256Z" fill="#3F3D56"/>
<path d="M415.628 13.8263H397.381C397.02 13.834 396.675 13.9941 396.422 14.2721C396.169 14.55 396.027 14.9238 396.027 15.3131C396.027 15.7024 396.169 16.0762 396.422 16.3542C396.675 16.6322 397.02 16.7922 397.381 16.7999H415.628C415.989 16.7922 416.334 16.6322 416.587 16.3542C416.84 16.0762 416.982 15.7024 416.982 15.3131C416.982 14.9238 416.84 14.55 416.587 14.2721C416.334 13.9941 415.989 13.834 415.628 13.8263Z" fill="#3F3D56"/>
<path d="M408.814 52.5259H16.8426C14.6722 52.5294 12.5916 53.4588 11.0569 55.1104C9.52213 56.7621 8.65851 59.0012 8.65527 61.3369V62.7578C8.65851 65.0936 9.52213 67.3327 11.0569 68.9843C12.5916 70.636 14.6722 71.5654 16.8426 71.5689H408.814C410.984 71.5654 413.065 70.636 414.599 68.9843C416.134 67.3327 416.998 65.0936 417.001 62.7578V61.3369C416.998 59.0012 416.134 56.7621 414.599 55.1104C413.065 53.4588 410.984 52.5294 408.814 52.5259Z" fill="#F0F0F0"/>
<path d="M64.1467 65.5631H26.8355C26.0007 65.5618 25.2005 65.204 24.6106 64.5682C24.0208 63.9325 23.6895 63.0708 23.6895 62.1724C23.6895 61.274 24.0208 60.4123 24.6106 59.7765C25.2005 59.1408 26.0007 58.783 26.8355 58.7817H64.1467C68.2099 58.7206 68.2505 65.6247 64.1467 65.5631Z" fill="white"/>
<path d="M175.761 65.5631H138.45C137.615 65.5618 136.815 65.204 136.225 64.5682C135.635 63.9325 135.304 63.0708 135.304 62.1724C135.304 61.274 135.635 60.4123 136.225 59.7765C136.815 59.1408 137.615 58.783 138.45 58.7817H175.761C179.824 58.7206 179.865 65.6247 175.761 65.5631Z" fill="white"/>
<path d="M287.376 65.5631H250.065C249.23 65.5618 248.429 65.204 247.84 64.5682C247.25 63.9325 246.918 63.0708 246.918 62.1724C246.918 61.274 247.25 60.4123 247.84 59.7765C248.429 59.1408 249.23 58.783 250.065 58.7817H287.376C291.439 58.7206 291.48 65.6247 287.376 65.5631Z" fill="white"/>
<path d="M393.205 65.9293H355.894C355.058 65.9293 354.257 65.5721 353.666 64.9362C353.075 64.3003 352.743 63.4379 352.743 62.5386C352.743 61.6393 353.075 60.7769 353.666 60.141C354.257 59.5051 355.058 59.1479 355.894 59.1479H393.205C397.268 59.0868 397.309 65.9909 393.205 65.9293Z" fill="#2F80ED"/>
<path d="M334.992 52.5259H333.631V71.5689H334.992V52.5259Z" fill="white"/>
<path d="M194.143 334.371H34.1717C32.7464 334.369 31.3798 333.759 30.3719 332.675C29.364 331.59 28.7971 330.119 28.7954 328.585V303.371C28.7971 301.837 29.364 300.367 30.3719 299.282C31.3798 298.197 32.7464 297.587 34.1717 297.586H194.143C195.569 297.587 196.935 298.197 197.943 299.282C198.951 300.367 199.518 301.837 199.52 303.371V328.585C199.518 330.119 198.951 331.59 197.943 332.675C196.935 333.759 195.569 334.369 194.143 334.371Z" fill="#F0F0F0"/>
<path d="M178.6 330.469H37.7991C36.3738 330.467 35.0073 329.857 33.9994 328.772C32.9915 327.687 32.4245 326.217 32.4229 324.683V307.277C32.4245 305.743 32.9915 304.273 33.9994 303.188C35.0073 302.103 36.3738 301.493 37.7991 301.491H190.517C191.942 301.493 193.309 302.103 194.317 303.188C195.325 304.273 195.892 305.743 195.893 307.277V311.858C195.888 316.792 194.065 321.523 190.823 325.012C187.581 328.501 183.185 330.463 178.6 330.469Z" fill="white"/>
<path d="M130.032 314.185H65.7357C65.3679 314.185 65.0153 314.027 64.7552 313.748C64.4952 313.468 64.3491 313.088 64.3491 312.692C64.3491 312.297 64.4952 311.917 64.7552 311.637C65.0153 311.358 65.3679 311.2 65.7357 311.2H130.032C130.4 311.2 130.752 311.358 131.012 311.637C131.272 311.917 131.419 312.297 131.419 312.692C131.419 313.088 131.272 313.468 131.012 313.748C130.752 314.027 130.4 314.185 130.032 314.185Z" fill="#E6E6E6"/>
<path d="M162.58 320.288H65.7353C65.553 320.288 65.3724 320.25 65.2038 320.175C65.0352 320.1 64.882 319.991 64.7529 319.852C64.6238 319.713 64.5214 319.549 64.4515 319.367C64.3817 319.186 64.3457 318.992 64.3457 318.796C64.3457 318.599 64.3817 318.405 64.4515 318.224C64.5214 318.043 64.6238 317.878 64.7529 317.739C64.882 317.601 65.0352 317.491 65.2038 317.416C65.3724 317.341 65.553 317.303 65.7353 317.303H162.58C162.947 317.304 163.299 317.462 163.558 317.742C163.817 318.021 163.963 318.4 163.963 318.796C163.963 319.191 163.817 319.57 163.558 319.85C163.299 320.129 162.947 320.287 162.58 320.288Z" fill="#E6E6E6"/>
<path d="M204.362 268.737H21.961C20.5055 268.735 19.1101 268.112 18.0809 267.005C17.0518 265.897 16.4729 264.395 16.4712 262.829V112.779C16.4729 111.213 17.0518 109.711 18.081 108.604C19.1101 107.496 20.5055 106.873 21.961 106.872H204.362C205.818 106.873 207.213 107.496 208.242 108.604C209.271 109.711 209.85 111.213 209.852 112.779V262.829C209.85 264.395 209.271 265.897 208.242 267.005C207.213 268.112 205.818 268.735 204.362 268.737Z" fill="white"/>
<path d="M204.362 269.47H21.9609C20.325 269.468 18.7567 268.767 17.5999 267.522C16.4432 266.277 15.7924 264.59 15.7905 262.829V112.779C15.7924 111.019 16.4432 109.331 17.5999 108.086C18.7567 106.841 20.325 106.141 21.9609 106.139H204.362C205.998 106.141 207.566 106.841 208.723 108.086C209.88 109.331 210.53 111.019 210.532 112.779V262.829C210.53 264.59 209.88 266.277 208.723 267.522C207.566 268.767 205.998 269.468 204.362 269.47ZM21.9609 107.604C20.6859 107.606 19.4635 108.151 18.562 109.122C17.6604 110.092 17.1532 111.407 17.1517 112.779V262.829C17.1531 264.201 17.6603 265.517 18.5618 266.487C19.4634 267.457 20.6859 268.003 21.9609 268.005H204.362C205.637 268.003 206.859 267.457 207.761 266.487C208.663 265.517 209.17 264.201 209.171 262.829V112.779C209.17 111.407 208.662 110.092 207.761 109.122C206.859 108.151 205.637 107.606 204.362 107.604L21.9609 107.604Z" fill="#F0F0F0"/>
<path d="M16.8921 240.173V262.829C16.8941 264.275 17.4287 265.661 18.3788 266.684C19.3289 267.706 20.6169 268.282 21.9605 268.284H204.362C205.706 268.282 206.994 267.706 207.944 266.684C208.894 265.661 209.428 264.275 209.43 262.829V240.173H16.8921Z" fill="#F0F0F0"/>
<path d="M18.6112 107.828L17.8774 109.061L209.064 240.789L209.797 239.556L18.6112 107.828Z" fill="#F0F0F0"/>
<path d="M209.603 107.828L18.417 239.556L19.1508 240.789L210.337 109.061L209.603 107.828Z" fill="#F0F0F0"/>
<path d="M371.162 431.153L362.729 431.153L358.717 396.151L371.163 396.152L371.162 431.153Z" fill="#A0616A"/>
<path d="M370.937 428.188L361.94 424.254L361.674 424.137L356.706 428.188C353.98 428.187 351.358 429.32 349.389 431.349C347.42 433.378 346.255 436.147 346.137 439.079C346.123 439.24 346.123 439.408 346.123 439.577V439.95H373.312V428.188H370.937Z" fill="#2F2E41"/>
<path d="M351.414 422.708L343.46 425.72L328.88 394.134L340.62 389.69L351.414 422.708Z" fill="#A0616A"/>
<path d="M350.288 419.991L340.588 419.495L340.301 419.479L336.864 425.074C334.292 426.048 332.168 428.052 330.937 430.67C329.705 433.288 329.46 436.316 330.252 439.123C330.289 439.28 330.341 439.439 330.393 439.598L330.508 439.95L356.156 430.239L352.528 419.143L350.288 419.991Z" fill="#2F2E41"/>
<path d="M374.141 280.231C381.856 279.909 372.299 346.069 372.299 346.069C372.299 346.069 375.095 404.154 374.502 407.202C373.91 410.25 374.428 418.471 374.428 418.471C372.916 415.511 357.323 417.745 357.323 417.745L355.202 358.876L344.372 311.708L329.357 343.326L343.748 391.856C343.748 391.856 349.576 397.66 348.956 399.954C348.336 402.247 333.071 407.419 330.266 407.536C327.46 407.653 328.727 403.821 328.591 400.048C328.455 396.274 315.255 361.299 310.612 349.399C305.969 337.499 309.578 320.719 311.948 308.526C314.318 296.333 326.787 273.452 326.787 273.452C342.265 254.665 366.427 280.553 374.141 280.231Z" fill="#2F2E41"/>
<path d="M280.128 226.766C280.551 227.635 281.145 228.393 281.87 228.988C282.594 229.583 283.431 230 284.321 230.209C285.212 230.418 286.134 230.415 287.023 230.199C287.912 229.983 288.746 229.56 289.466 228.96L308.018 241.985L307.961 229.598L290.353 219.128C289.336 217.892 287.933 217.101 286.409 216.904C284.886 216.707 283.349 217.118 282.088 218.06C280.828 219.001 279.932 220.407 279.571 222.012C279.21 223.617 279.408 225.308 280.128 226.766Z" fill="#A0616A"/>
<path d="M370.135 290.837C351.004 290.838 340.461 286.717 334.863 283.037C328.017 278.537 326.846 273.792 326.799 273.592L326.786 273.535L327.452 264.511L327.743 263.809C329.086 260.574 329.264 256.918 328.243 253.55L328.222 253.48L328.228 253.408L332.701 190.973L348.531 185.393L353.136 180.413L373.64 180.093L376.497 186.326L392.661 192.875L384.72 243.746L380.913 250.808L382.445 258.501L382.434 258.57L377.44 290.65L377.165 290.663C374.702 290.782 372.359 290.84 370.135 290.837Z" fill="#3F3D56"/>
<path d="M320.642 251.886L313.137 247.097L312.666 246.366C311.711 244.887 310.446 243.669 308.974 242.811C307.502 241.952 305.864 241.477 304.19 241.424L304.103 241.421L293.766 234.881L298.051 221.372L314.256 226.524L325.553 196.316C326.173 194.657 327.209 193.216 328.545 192.152C329.881 191.089 331.466 190.445 333.121 190.293C334.777 190.141 336.44 190.486 337.924 191.29C339.409 192.093 340.657 193.325 341.53 194.846C342.424 196.437 342.888 198.265 342.869 200.124V219.89L342.801 219.988L320.642 251.886Z" fill="#3F3D56"/>
<path d="M370.819 279.219C370.979 278.254 371.334 277.338 371.859 276.537C372.384 275.735 373.066 275.067 373.857 274.58C374.647 274.092 375.528 273.797 376.436 273.716C377.344 273.634 378.258 273.768 379.113 274.107L393.171 255.686L396.575 267.519L382.703 283.198C382.078 284.706 380.96 285.915 379.563 286.595C378.165 287.275 376.583 287.38 375.119 286.89C373.654 286.399 372.407 285.347 371.614 283.934C370.822 282.52 370.539 280.843 370.819 279.219Z" fill="#A0616A"/>
<path d="M391.838 276.891L382.503 266.844L388.445 251.262L397.057 238.607C387.88 233.799 380.992 222.41 376 212.981L375.944 212.875L377.187 202.399C377.478 199.948 378.39 197.632 379.823 195.702C381.07 194.024 382.672 192.692 384.494 191.817C386.317 190.942 388.308 190.549 390.301 190.671C392.294 190.794 394.231 191.428 395.949 192.521C397.668 193.614 399.118 195.134 400.179 196.954L416.915 236.994L416.727 237.297L403.265 261.993L399.591 264.557L391.838 276.891Z" fill="#3F3D56"/>
<path d="M378.11 159.091C377.494 163.919 375.123 168.286 371.517 171.234C367.911 174.181 363.366 175.468 358.879 174.811C354.392 174.154 350.331 171.606 347.588 167.729C344.845 163.852 343.645 158.961 344.251 154.132L344.284 153.871C344.992 149.106 347.412 144.831 351.022 141.97C354.632 139.108 359.142 137.888 363.581 138.572C368.019 139.257 372.029 141.793 374.746 145.631C377.463 149.469 378.67 154.303 378.105 159.09L378.11 159.091Z" fill="#A0616A"/>
<path d="M373.761 168.562C374.638 166.644 375.54 164.584 375.293 162.463C375.046 160.342 373.113 158.314 371.215 158.944C370.08 159.321 369.222 160.528 368.036 160.589C366.403 160.674 365.467 158.664 364.959 156.992L362.889 150.183C360.902 151.85 358.597 153.024 356.139 153.621C353.681 154.219 351.131 154.226 348.671 153.64C346.75 153.167 344.808 152.246 343.681 150.505C342.554 148.765 342.561 146.066 344.107 144.75C344.865 144.104 345.874 143.859 346.598 143.171C347.048 142.744 347.357 142.172 347.481 141.541C347.606 140.91 347.538 140.252 347.288 139.666C347.037 139.079 346.619 138.595 346.093 138.285C345.567 137.974 344.963 137.854 344.369 137.942L349.58 137.241L348.027 134.219C348.617 134.652 349.285 134.946 349.987 135.085C350.689 135.224 351.411 135.203 352.105 135.024C353.507 134.753 354.828 134.131 356.199 133.717C359.524 132.804 363.034 133.083 366.198 134.512C369.362 135.942 372.005 138.444 373.727 141.638C375.009 141.177 376.391 141.147 377.69 141.55C378.989 141.954 380.144 142.773 381 143.898C382.395 145.804 382.775 148.346 382.829 150.772C382.93 155.553 381.961 160.291 380.004 164.585C379.443 165.949 378.636 167.18 377.631 168.208C377.125 168.717 376.522 169.101 375.863 169.333C375.205 169.565 374.507 169.638 373.819 169.549" fill="#2F2E41"/>
<path d="M96.8961 149.643C97.1748 153.926 98.3472 158.085 100.326 161.813C104.496 169.695 111.647 175.401 119.349 178.793C128.972 183.03 139.698 183.161 149.911 182.216C159.396 181.338 168.784 179.304 178.304 178.885C185.666 178.631 193.036 178.82 200.378 179.451C214.624 180.54 228.81 182.559 242.905 185.006C246.723 185.661 250.532 186.364 254.333 187.117C254.692 187.151 255.048 187.222 255.394 187.329C255.464 187.359 255.575 187.335 255.638 187.378C255.752 187.456 255.174 187.181 255.524 187.493C256.014 188.045 256.449 188.649 256.826 189.296L262.031 196.505C263.524 198.572 264.91 201.084 266.839 202.714C268.199 203.845 269.841 204.517 271.556 204.646C273.271 204.774 274.982 204.354 276.475 203.437C278.035 202.376 279.279 200.856 280.059 199.056C281.256 196.693 282.685 194.474 284.32 192.437C290.513 184.662 299.121 179.879 306.32 173.337C309.807 170.298 312.783 166.637 315.118 162.513C317.111 158.782 318.349 154.64 318.754 150.359C319.616 141.664 317.137 132.797 312.967 125.4C308.431 117.454 301.915 111.035 294.16 106.875C285.447 102.098 275.806 99.7709 266.142 98.6113C255.881 97.3802 245.501 97.3841 235.19 97.5084C223.619 97.647 212.068 98.1946 200.539 99.1512C188.993 100.113 177.494 101.48 166.039 103.252C155.049 104.953 143.923 106.725 133.165 109.734C123.661 112.393 114.183 116.547 107.086 124.076C100.776 130.769 96.3871 139.929 96.8961 149.643Z" fill="#2F80ED"/>
<path d="M150.022 152.409C149.552 152.386 149.092 152.259 148.67 152.035C148.248 151.812 147.873 151.497 147.57 151.11C147.267 150.723 147.041 150.272 146.908 149.787C146.774 149.302 146.736 148.792 146.794 148.29L147.038 146.221C147.085 145.824 147.041 145.421 146.911 145.046C146.781 144.671 146.568 144.336 146.291 144.07L144.847 142.681C144.374 142.226 144.029 141.638 143.85 140.984C143.672 140.329 143.667 139.633 143.837 138.976C144.006 138.318 144.343 137.725 144.81 137.263C145.277 136.801 145.854 136.488 146.477 136.361L148.381 135.972C148.746 135.898 149.088 135.729 149.379 135.48C149.67 135.231 149.9 134.91 150.05 134.544L150.832 132.635C151.088 132.01 151.501 131.476 152.024 131.091C152.548 130.706 153.161 130.486 153.794 130.457C154.428 130.427 155.056 130.589 155.609 130.924C156.161 131.258 156.616 131.753 156.921 132.351L157.852 134.179C158.031 134.53 158.286 134.829 158.596 135.05C158.906 135.271 159.261 135.408 159.631 135.448L161.559 135.657C162.19 135.726 162.79 135.983 163.292 136.4C163.794 136.817 164.178 137.377 164.4 138.016C164.622 138.655 164.673 139.348 164.548 140.017C164.423 140.686 164.126 141.304 163.692 141.801L162.364 143.32C162.109 143.611 161.924 143.964 161.825 144.35C161.726 144.735 161.715 145.14 161.794 145.531L162.203 147.57C162.337 148.237 162.295 148.931 162.082 149.574C161.869 150.216 161.493 150.781 160.997 151.206C160.5 151.631 159.904 151.897 159.274 151.976C158.644 152.055 158.007 151.942 157.433 151.651L155.681 150.763C155.345 150.591 154.975 150.511 154.603 150.528C154.232 150.545 153.87 150.659 153.549 150.861L151.874 151.911C151.314 152.264 150.671 152.437 150.022 152.409Z" fill="white"/>
<path d="M177.31 151.556C176.445 151.513 175.628 151.12 175.021 150.456C174.654 150.038 174.381 149.536 174.221 148.988C174.061 148.439 174.02 147.859 174.099 147.29L174.323 145.392C174.371 144.988 174.327 144.577 174.194 144.195C174.062 143.814 173.845 143.472 173.563 143.201L172.223 141.913C171.828 141.55 171.513 141.096 171.301 140.586C171.089 140.076 170.986 139.521 170.999 138.962C171.028 138.134 171.318 137.342 171.82 136.714C172.323 136.087 173.009 135.661 173.765 135.508L175.647 135.124C176.019 135.048 176.368 134.875 176.664 134.622C176.961 134.368 177.195 134.04 177.348 133.667L178.049 131.954C178.3 131.303 178.713 130.74 179.242 130.326C179.771 129.911 180.396 129.662 181.048 129.605C181.687 129.566 182.324 129.724 182.883 130.059C183.443 130.394 183.902 130.893 184.209 131.498L185.129 133.305C185.311 133.662 185.572 133.967 185.888 134.192C186.204 134.417 186.566 134.556 186.943 134.597L188.729 134.792C189.248 134.835 189.75 135.003 190.2 135.282C190.651 135.561 191.037 135.945 191.332 136.406C191.76 137.094 191.958 137.918 191.894 138.743C191.83 139.569 191.508 140.346 190.98 140.948L189.668 142.449C189.408 142.746 189.22 143.106 189.119 143.498C189.017 143.891 189.006 144.304 189.086 144.702L189.464 146.584C189.586 147.128 189.593 147.694 189.486 148.241C189.38 148.788 189.162 149.302 188.848 149.748C188.374 150.402 187.706 150.862 186.956 151.053C186.206 151.244 185.417 151.154 184.721 150.798L182.987 149.919C182.644 149.745 182.268 149.664 181.89 149.682C181.512 149.699 181.144 149.815 180.817 150.02L179.162 151.058C178.602 151.411 177.959 151.584 177.31 151.556Z" fill="white"/>
<path d="M204.668 151.432C204.198 151.409 203.738 151.282 203.316 151.058C202.894 150.834 202.52 150.519 202.217 150.132C201.913 149.745 201.688 149.295 201.554 148.81C201.421 148.324 201.382 147.814 201.441 147.312L201.685 145.243C201.731 144.846 201.688 144.443 201.558 144.069C201.427 143.694 201.215 143.359 200.938 143.092L199.494 141.703C199.021 141.249 198.675 140.661 198.497 140.006C198.318 139.351 198.314 138.656 198.483 137.998C198.653 137.341 198.99 136.747 199.457 136.285C199.923 135.823 200.501 135.511 201.124 135.384L203.027 134.995C203.392 134.92 203.735 134.751 204.026 134.503C204.317 134.254 204.547 133.933 204.697 133.567L205.478 131.657C205.734 131.033 206.147 130.498 206.671 130.113C207.194 129.728 207.807 129.509 208.441 129.479C209.074 129.45 209.703 129.611 210.255 129.946C210.808 130.281 211.262 130.775 211.567 131.373L212.499 133.201C212.677 133.552 212.933 133.851 213.243 134.072C213.553 134.294 213.908 134.43 214.278 134.47L216.205 134.68C216.836 134.749 217.437 135.006 217.939 135.423C218.441 135.839 218.824 136.399 219.046 137.038C219.268 137.678 219.32 138.371 219.194 139.04C219.069 139.709 218.773 140.327 218.338 140.824L217.011 142.343C216.756 142.634 216.571 142.987 216.471 143.372C216.372 143.757 216.361 144.163 216.44 144.554L216.85 146.593C216.984 147.26 216.942 147.954 216.728 148.596C216.515 149.239 216.139 149.804 215.643 150.229C215.147 150.653 214.55 150.92 213.92 150.998C213.291 151.077 212.653 150.965 212.08 150.674L210.327 149.785C209.991 149.614 209.621 149.533 209.25 149.55C208.878 149.568 208.516 149.682 208.195 149.884L206.521 150.933C205.96 151.286 205.317 151.459 204.668 151.432Z" fill="white"/>
<path opacity="0.2" d="M231.28 150.655C230.81 150.632 230.349 150.505 229.927 150.281C229.506 150.057 229.131 149.742 228.828 149.355C228.525 148.968 228.299 148.518 228.166 148.033C228.032 147.547 227.993 147.037 228.052 146.535L228.296 144.466C228.343 144.069 228.299 143.666 228.169 143.292C228.039 142.917 227.826 142.582 227.549 142.315L226.105 140.926C225.632 140.472 225.287 139.884 225.108 139.229C224.93 138.574 224.925 137.879 225.095 137.221C225.264 136.564 225.601 135.97 226.068 135.508C226.535 135.046 227.112 134.734 227.735 134.607L229.639 134.218C230.004 134.143 230.346 133.974 230.637 133.726C230.928 133.477 231.158 133.156 231.308 132.79L232.09 130.88C232.345 130.256 232.758 129.721 233.282 129.336C233.805 128.951 234.419 128.732 235.052 128.702C235.685 128.673 236.314 128.834 236.866 129.169C237.419 129.504 237.873 129.998 238.178 130.596L239.11 132.424C239.289 132.775 239.544 133.074 239.854 133.295C240.164 133.517 240.519 133.653 240.889 133.693L242.817 133.903C243.447 133.972 244.048 134.229 244.55 134.646C245.052 135.063 245.436 135.622 245.658 136.261C245.88 136.901 245.931 137.594 245.806 138.263C245.681 138.932 245.384 139.55 244.949 140.047L243.622 141.566C243.367 141.857 243.182 142.21 243.083 142.595C242.983 142.98 242.973 143.386 243.051 143.777L243.461 145.816C243.595 146.483 243.553 147.177 243.34 147.819C243.127 148.462 242.751 149.027 242.254 149.452C241.758 149.876 241.161 150.143 240.532 150.222C239.902 150.3 239.264 150.188 238.691 149.897L236.938 149.008C236.602 148.837 236.233 148.756 235.861 148.773C235.49 148.791 235.128 148.905 234.807 149.107L233.132 150.156C232.571 150.509 231.929 150.682 231.28 150.655Z" fill="black"/>
<path opacity="0.2" d="M257.89 149.878C257.421 149.855 256.96 149.728 256.538 149.504C256.116 149.281 255.742 148.965 255.439 148.578C255.136 148.191 254.91 147.741 254.777 147.256C254.643 146.77 254.604 146.261 254.663 145.758L254.907 143.689C254.954 143.293 254.91 142.889 254.78 142.515C254.65 142.14 254.437 141.805 254.16 141.538L252.716 140.15C252.243 139.695 251.898 139.107 251.719 138.452C251.54 137.798 251.536 137.102 251.705 136.444C251.875 135.787 252.212 135.194 252.679 134.732C253.145 134.27 253.723 133.957 254.346 133.83L256.25 133.441C256.614 133.366 256.957 133.197 257.248 132.949C257.539 132.7 257.769 132.379 257.919 132.013L258.7 130.104C258.956 129.479 259.369 128.944 259.893 128.56C260.416 128.175 261.029 127.955 261.663 127.925C262.296 127.896 262.925 128.058 263.477 128.392C264.03 128.727 264.484 129.221 264.789 129.819L265.721 131.648C265.899 131.999 266.155 132.298 266.465 132.519C266.775 132.74 267.13 132.876 267.5 132.917L269.427 133.126C270.058 133.195 270.659 133.452 271.161 133.869C271.663 134.286 272.047 134.845 272.268 135.485C272.49 136.124 272.542 136.817 272.416 137.486C272.291 138.155 271.995 138.773 271.56 139.27L270.233 140.789C269.978 141.08 269.793 141.433 269.694 141.818C269.594 142.204 269.583 142.609 269.662 143L270.072 145.039C270.206 145.706 270.164 146.4 269.951 147.042C269.737 147.685 269.361 148.25 268.865 148.675C268.369 149.099 267.772 149.366 267.143 149.445C266.513 149.523 265.875 149.411 265.302 149.12L263.549 148.231C263.213 148.06 262.843 147.979 262.472 147.997C262.101 148.014 261.739 148.128 261.418 148.33L259.743 149.379C259.182 149.732 258.539 149.905 257.89 149.878Z" fill="black"/>
<path d="M427.43 394.226L428.208 375.388C436.324 370.72 445.375 368.254 454.577 368.205C441.913 379.347 443.495 400.827 434.909 415.812C432.198 420.463 428.549 424.399 424.232 427.326C419.916 430.253 415.042 432.098 409.973 432.723L399.375 439.706C397.921 430.981 398.242 422.021 400.315 413.443C402.388 404.864 406.165 396.871 411.385 390.015C414.349 386.2 417.748 382.801 421.501 379.9C424.039 387.103 427.43 394.226 427.43 394.226Z" fill="#F2F2F2"/>
<path d="M488.189 441.356H204.129C203.914 441.356 203.708 441.264 203.556 441.101C203.404 440.937 203.319 440.715 203.319 440.484C203.319 440.253 203.404 440.031 203.556 439.867C203.708 439.704 203.914 439.612 204.129 439.612H488.189C488.404 439.612 488.61 439.704 488.762 439.867C488.914 440.031 489 440.253 489 440.484C489 440.715 488.914 440.937 488.762 441.101C488.61 441.264 488.404 441.356 488.189 441.356Z" fill="#CACACA"/>
</g>
<defs>
<clipPath id="clip0_40_160">
<rect width="489" height="440.712" fill="white" transform="translate(0 0.643921)"/>
</clipPath>
</defs>
</svg>
