<svg width="432" height="321" viewBox="0 0 432 321" fill="none" xmlns="http://www.w3.org/2000/svg">
<g clip-path="url(#clip0_40_203)">
<path d="M206.717 114.577H54.5445L26.2573 146.086V114.577H0V0H206.717V114.577Z" fill="#E5E5E5"/>
<path d="M172.822 33.6573H33.8965V39.8637H172.822V33.6573Z" fill="white"/>
<path d="M172.822 54.1858H33.8965V60.3921H172.822V54.1858Z" fill="white"/>
<path d="M172.822 74.7144H33.8965V80.9207H172.822V74.7144Z" fill="white"/>
<path d="M26.6761 165.372C29.5614 165.372 31.9005 163.033 31.9005 160.147C31.9005 157.262 29.5614 154.923 26.6761 154.923C23.7907 154.923 21.4517 157.262 21.4517 160.147C21.4517 163.033 23.7907 165.372 26.6761 165.372Z" fill="#E6E6E6"/>
<path d="M364.894 313.617H359.041L356.255 291.038H364.895L364.894 313.617Z" fill="#9F616A"/>
<path d="M366.387 319.291L347.512 319.291V319.052C347.512 317.103 348.286 315.235 349.664 313.857C351.041 312.479 352.91 311.705 354.858 311.705H354.859L366.387 311.706L366.387 319.291Z" fill="#2F2E41"/>
<path d="M307.841 313.153L302.291 311.292L306.828 288.999L315.019 291.746L307.841 313.153Z" fill="#9F616A"/>
<path d="M307.452 319.008L289.557 313.008L289.633 312.781C290.252 310.934 291.58 309.408 293.324 308.54C295.068 307.672 297.086 307.532 298.933 308.151L298.934 308.151L309.864 311.816L307.452 319.008Z" fill="#2F2E41"/>
<path d="M315.057 196.928L302.381 304.161L314.814 305.21C314.814 305.21 334.371 199.78 340.4 212.269C346.429 224.758 353.816 302.869 353.816 302.869H366.155C366.155 302.869 369.32 180.994 356.4 174.964L315.057 196.928Z" fill="#2F2E41"/>
<path d="M347.913 108.583C349.11 101.79 344.574 95.3134 337.781 94.1167C330.988 92.92 324.511 97.4565 323.314 104.249C322.118 111.042 326.654 117.519 333.447 118.716C340.24 119.913 346.717 115.376 347.913 108.583Z" fill="#9F616A"/>
<path d="M328.192 123.501L344.126 124.793C344.126 124.793 356.83 125.008 361.998 128.453C367.166 131.899 357.046 153.216 357.046 153.216C357.046 153.216 354.415 161.668 356.4 165.49C362.841 177.89 361.886 187.44 361.886 187.44C361.886 187.44 348.648 190.468 325.823 196.497C325.823 196.497 311.612 202.096 312.042 199.081C312.473 196.066 316.78 161.614 316.78 161.614V125.87L328.192 123.501Z" fill="#3F3D56"/>
<path d="M356.066 105.063C355.429 101.506 354.001 96.4611 350.819 92.6359C350.919 92.6365 351.019 92.6409 351.119 92.638C352.213 92.6061 353.457 92.2612 353.909 91.265C354.055 90.866 354.091 90.4352 354.014 90.0174C353.938 89.5995 353.751 89.2098 353.473 88.8885C352.909 88.2539 352.234 87.7269 351.482 87.3331C352.249 87.799 353.334 88.2317 353.946 87.5755C354.104 87.3776 354.201 87.139 354.228 86.8876C354.255 86.6362 354.209 86.3825 354.097 86.1561C353.864 85.7069 353.538 85.3131 353.139 85.0015C351.849 83.8606 350.438 82.8648 348.931 82.0318C347.764 81.3871 346.229 80.8694 345.182 81.6941C344.114 82.5343 344.286 84.1704 344.56 85.5006C343.962 85.1512 343.291 84.9484 342.6 84.9089C342.254 84.8991 341.916 85.0086 341.642 85.2191C341.368 85.4295 341.175 85.7281 341.096 86.0643C341.086 86.3296 341.145 86.5929 341.266 86.8289C341.388 87.0648 341.569 87.2653 341.791 87.411C337.673 86.7338 332.411 87.5022 325.685 90.6146C325.685 90.6146 319.163 92.7886 318.831 101.374C318.798 102.747 318.95 104.119 319.284 105.451C319.651 107.008 320.959 114.643 319.391 117.729L327.245 120.527L327.335 115.823C321.231 107.011 324.246 103.777 326.623 98.477C326.627 98.4674 326.634 98.459 326.642 98.4528C326.651 98.4467 326.661 98.4431 326.671 98.4423C326.681 98.4415 326.692 98.4436 326.701 98.4484C326.71 98.4532 326.718 98.4605 326.723 98.4695C327.163 99.2232 328.846 101.807 334.638 101.807L332.4 99.5683C332.4 99.5683 342.249 103.598 345.831 103.598C345.831 103.598 348.517 105.388 345.831 108.074C343.145 110.761 337.266 114.714 340.4 119.639C343.533 124.563 343.264 126.31 343.264 126.31L350.427 122.281C350.427 122.281 354.802 113.625 355.578 111.076C356.215 109.139 356.383 107.078 356.066 105.063Z" fill="#2F2E41"/>
<path d="M269.996 202.116H412.494V281.098H394.394V302.819L374.895 281.098H269.996V202.116Z" fill="#2F80ED"/>
<path d="M389.128 225.317H293.361V229.595H389.128V225.317Z" fill="white"/>
<path d="M389.128 239.468H293.361V243.746H389.128V239.468Z" fill="white"/>
<path d="M389.128 253.619H293.361V257.897H389.128V253.619Z" fill="white"/>
<path d="M363.559 151.508L355.201 153.539L355.138 170.455L345.737 202.9C344.985 203.495 344.41 204.285 344.074 205.184C343.739 206.083 343.656 207.056 343.835 207.999C344.014 208.941 344.448 209.817 345.089 210.53C345.73 211.244 346.554 211.768 347.473 212.046C348.391 212.324 349.367 212.345 350.297 212.107C351.226 211.87 352.073 211.382 352.744 210.697C353.416 210.012 353.887 209.156 354.107 208.222C354.326 207.288 354.286 206.312 353.99 205.4L365.228 171.811L363.559 151.508Z" fill="#9F616A"/>
<path d="M307.932 151.152L317.959 154.017L318.022 170.932L327.422 203.378C328.175 203.973 328.75 204.763 329.085 205.662C329.421 206.56 329.503 207.534 329.325 208.476C329.146 209.419 328.712 210.294 328.071 211.008C327.43 211.721 326.605 212.245 325.687 212.523C324.769 212.802 323.792 212.823 322.863 212.585C321.934 212.347 321.087 211.859 320.416 211.174C319.744 210.489 319.273 209.634 319.053 208.7C318.833 207.766 318.874 206.79 319.17 205.877L307.932 172.289V151.152Z" fill="#9F616A"/>
<path d="M351.017 126.731L353.088 126.056C354.251 125.676 355.516 125.764 356.615 126.3C356.615 126.3 362.644 126.731 363.506 131.038C364.367 135.344 366.462 172.986 366.462 172.986L353.691 168.922L351.017 126.731Z" fill="#3F3D56"/>
<path d="M321.947 126.731L318.281 126.547L317.12 125.966C317.12 125.966 310.32 126.731 309.458 131.037C308.597 135.344 306.091 174.147 306.091 174.147L318.862 170.664L321.947 126.731Z" fill="#3F3D56"/>
<path d="M111.324 279.303L117.377 274.023C117.118 270.23 116.645 266.455 115.961 262.715L112.621 264.128L115.72 261.424C114.828 256.808 113.945 253.808 113.945 253.808C113.945 253.808 101.732 264.654 94.8974 277.885L97.8955 287.747L93.3161 281.226C92.6351 282.8 92.0538 284.415 91.5756 286.063C86.8101 302.687 88.3762 317.72 95.0737 319.64C101.771 321.56 111.064 309.639 115.829 293.015C117.22 287.69 117.786 282.184 117.508 276.687L111.324 279.303Z" fill="#F1F1F1"/>
<path d="M127.353 292.23L135.265 290.838C137.004 287.458 138.551 283.981 139.898 280.426L136.308 279.909L140.359 279.197C141.981 274.785 142.776 271.76 142.776 271.76C142.776 271.76 126.715 274.731 114.025 282.525L111.494 292.517L110.945 284.567C109.548 285.563 108.215 286.645 106.954 287.808C94.282 299.576 87.852 313.254 92.593 318.36C97.334 323.465 111.45 318.064 124.123 306.297C128.066 302.457 131.397 298.036 134 293.187L127.353 292.23Z" fill="#F1F1F1"/>
<path d="M431.419 319.849H72.6772C72.5232 319.849 72.3756 319.788 72.2667 319.679C72.1578 319.571 72.0967 319.423 72.0967 319.269C72.0967 319.115 72.1578 318.967 72.2667 318.859C72.3756 318.75 72.5232 318.688 72.6772 318.688H431.419C431.573 318.688 431.721 318.75 431.83 318.859C431.939 318.967 432 319.115 432 319.269C432 319.423 431.939 319.571 431.83 319.679C431.721 319.788 431.573 319.849 431.419 319.849Z" fill="#CBCBCB"/>
</g>
<defs>
<clipPath id="clip0_40_203">
<rect width="432" height="320.284" fill="white"/>
</clipPath>
</defs>
</svg>
