<svg width="167" height="200" viewBox="0 0 167 200" fill="none" xmlns="http://www.w3.org/2000/svg">
<g clip-path="url(#clip0_28_205)">
<path d="M2.03638 95.6573C2.64636 96.676 3.47229 97.5486 4.45598 98.2136C5.43967 98.8786 6.5572 99.3198 7.72985 99.5061C8.9025 99.6925 10.1017 99.6195 11.2431 99.2922C12.3845 98.9649 13.4402 98.3914 14.336 97.612L39.3728 111.972L38.4397 97.0022L14.8074 85.661C13.3982 84.243 11.5179 83.3912 9.52272 83.2669C7.52751 83.1426 5.55602 83.7545 3.98183 84.9867C2.40764 86.2189 1.34013 87.9857 0.981567 89.9524C0.623008 91.919 0.998319 93.9489 2.03638 95.6573Z" fill="#FFB8B8"/>
<path d="M74.5208 153.181C67.0941 163.576 67.3597 180.967 69.4318 200H104.546L106.072 196.438L108.108 200H141.186C141.186 200 138.642 151.655 134.062 150.128C129.482 148.601 74.5208 153.181 74.5208 153.181Z" fill="#2F2E41"/>
<path d="M104.546 44.5788C114.383 44.5788 122.357 36.6043 122.357 26.7674C122.357 16.9304 114.383 8.95593 104.546 8.95593C94.7086 8.95593 86.7341 16.9304 86.7341 26.7674C86.7341 36.6043 94.7086 44.5788 104.546 44.5788Z" fill="#FFB8B8"/>
<path d="M117.419 49.1998L120.902 55.8758L144.994 66.6154L138.661 127.9L135.996 134.246L137.436 139.757L133.964 143.825C137.449 146.978 137.892 150.279 135.996 153.693L124.902 156.235C124.902 156.235 63.2153 161.72 68.414 152.164C74.0943 141.722 75.5408 110.884 63.001 94.4053C52.355 80.4152 60.5283 62.2615 60.5283 62.2615L85.7809 54.7148L95.0692 49.1998L117.419 49.1998Z" fill="#3F3D56"/>
<path d="M112.453 0.676341C112.537 0.499249 112.671 0.351216 112.84 0.251254C113.008 0.151292 113.203 0.103963 113.398 0.11535C105.244 -0.372423 96.6547 0.577995 89.8327 5.07162C88.18 6.16028 86.6218 7.4588 84.8233 8.24854C84.7384 8.28668 84.6648 8.34613 84.6097 8.42111C84.5546 8.49609 84.5198 8.58404 84.5087 8.67644C84.4976 8.76883 84.5106 8.86253 84.5464 8.94842C84.5822 9.03431 84.6396 9.10948 84.7131 9.16663L84.9106 9.32153C84.9885 9.38265 85.0482 9.46397 85.0832 9.55664C85.1181 9.64932 85.127 9.7498 85.1088 9.84716C85.0906 9.94452 85.0461 10.035 84.9801 10.1088C84.914 10.1827 84.829 10.237 84.7343 10.2658C84.6356 10.296 84.5474 10.3537 84.4804 10.4322C84.4133 10.5107 84.3701 10.6067 84.3558 10.7089C84.3415 10.8112 84.3567 10.9154 84.3997 11.0093C84.4426 11.1032 84.5115 11.1828 84.5982 11.2389L86.112 12.2172C86.1883 12.2656 86.2511 12.3324 86.2948 12.4115C86.3385 12.4905 86.3617 12.5792 86.3622 12.6695C86.3627 12.7598 86.3405 12.8488 86.2977 12.9283C86.2548 13.0078 86.1927 13.0753 86.117 13.1245C85.9887 13.2037 85.8541 13.272 85.7144 13.3286C85.6275 13.3613 85.5505 13.4157 85.4908 13.4868C85.431 13.5579 85.3906 13.6431 85.3734 13.7343C85.3562 13.8256 85.3628 13.9197 85.3925 14.0076C85.4222 14.0956 85.4741 14.1744 85.5432 14.2364C86.1987 14.82 86.7015 15.5551 87.0078 16.3775C87.5123 17.6895 87.603 19.1182 87.6882 20.5212C88.2097 18.4969 90.419 17.3052 92.5059 17.1841C94.5928 17.0631 96.6281 17.7516 98.6591 18.2466C103.083 19.3216 107.677 19.4983 112.17 18.7664C110.644 21.8283 111.931 25.4804 113.227 28.6468L117.419 26.8499C123.176 23.5999 119.166 37.3479 117.013 39.2353C121.408 40.759 132.912 23.8475 129.211 17.4326C127.286 14.0957 128.652 9.79183 124.868 6.62698C123.013 4.67436 119.31 5.54223 117.419 3.91937C116.675 3.28064 117.809 1.57181 116.786 1.19939C116.446 1.0757 112.509 0.551675 112.453 0.676341Z" fill="#2F2E41"/>
<path d="M82.2832 56.439C79.0149 70.949 70.6322 104.828 62.1276 111.913C61.5883 112.423 60.9416 112.805 60.2351 113.031C30.3413 120.314 20.7627 101.737 20.7627 101.737C20.7627 101.737 28.7739 97.8329 28.9771 90.202L45.1329 95.2148L59.2163 63.5213L61.2888 61.5882L61.3004 61.5766L82.2832 56.439Z" fill="#3F3D56"/>
<path d="M146.021 190.432C146.877 189.61 147.542 188.609 147.97 187.501C148.397 186.394 148.577 185.206 148.495 184.021C148.414 182.836 148.074 181.684 147.499 180.645C146.924 179.606 146.129 178.706 145.168 178.008L153.549 150.389L139.17 154.654L133.416 180.228C132.35 181.919 131.941 183.943 132.268 185.915C132.594 187.887 133.632 189.671 135.186 190.929C136.74 192.187 138.701 192.831 140.698 192.74C142.695 192.648 144.589 191.827 146.021 190.432Z" fill="#FFB8B8"/>
<path d="M138.351 65.0703L144.994 66.6154C144.994 66.6154 172.448 120.031 165.832 130.209C159.216 140.387 151.112 174.084 151.112 174.084C151.112 174.084 139.124 171.701 134.544 165.594L142.932 125.629L134.28 92.0419L138.351 65.0703Z" fill="#3F3D56"/>
<path d="M12.3379 144.391L12.5764 58.3617C12.5832 56.6205 13.2804 54.953 14.5151 53.7252C15.7497 52.4974 17.421 51.8094 19.1622 51.8123L84.1338 51.9924C85.875 51.9992 87.5424 52.6964 88.7702 53.9311C89.9981 55.1657 90.686 56.837 90.6831 58.5782L90.4446 144.608C90.4378 146.349 89.7406 148.017 88.506 149.244C87.2713 150.472 85.6001 151.16 83.8588 151.157L18.8873 150.977C17.1461 150.97 15.4786 150.273 14.2508 149.039C13.023 147.804 12.335 146.133 12.3379 144.391Z" fill="#E6E6E6"/>
<path d="M17.3938 118.421L17.5472 63.1131C17.5535 61.4824 18.2064 59.9207 19.3627 58.7708C20.519 57.6209 22.0843 56.9767 23.715 56.9794L79.5525 57.1342C81.1833 57.1405 82.745 57.7934 83.8949 58.9497C85.0449 60.106 85.6892 61.6712 85.6866 63.302L85.4743 139.857C85.4679 141.487 84.8149 143.049 83.6586 144.199C82.5022 145.349 80.937 145.993 79.3062 145.99L44.716 145.895C37.4521 145.866 30.4961 142.958 25.374 137.807C20.2519 132.657 17.3819 125.685 17.3938 118.421Z" fill="white"/>
<path d="M73.1542 81.2736H29.6153C28.9224 81.2736 28.258 80.9984 27.7681 80.5085C27.2782 80.0186 27.0029 79.3541 27.0029 78.6613C27.0029 77.9685 27.2782 77.304 27.7681 76.8141C28.258 76.3242 28.9224 76.049 29.6153 76.049H73.1542C73.8471 76.049 74.5115 76.3242 75.0014 76.8141C75.4913 77.304 75.7666 77.9685 75.7666 78.6613C75.7666 79.3541 75.4913 80.0186 75.0014 80.5085C74.5115 80.9984 73.8471 81.2736 73.1542 81.2736Z" fill="#2F80ED"/>
<path d="M39.1938 69.228H29.6153C28.9224 69.228 28.258 68.9527 27.7681 68.4628C27.2782 67.9729 27.0029 67.3085 27.0029 66.6156C27.0029 65.9228 27.2782 65.2583 27.7681 64.7684C28.258 64.2785 28.9224 64.0033 29.6153 64.0033H39.1938C39.8867 64.0033 40.5511 64.2785 41.041 64.7684C41.5309 65.2583 41.8062 65.9228 41.8062 66.6156C41.8062 67.3085 41.5309 67.9729 41.041 68.4628C40.5511 68.9527 39.8867 69.228 39.1938 69.228Z" fill="#2F80ED"/>
<path d="M73.1542 93.3195H29.6153C28.9224 93.3195 28.258 93.0443 27.7681 92.5544C27.2782 92.0645 27.0029 91.4 27.0029 90.7072C27.0029 90.0144 27.2782 89.3499 27.7681 88.86C28.258 88.3701 28.9224 88.0948 29.6153 88.0948H73.1542C73.8471 88.0948 74.5115 88.3701 75.0014 88.86C75.4913 89.3499 75.7666 90.0144 75.7666 90.7072C75.7666 91.4 75.4913 92.0645 75.0014 92.5544C74.5115 93.0443 73.8471 93.3195 73.1542 93.3195Z" fill="#2F80ED"/>
<path d="M73.1542 105.365H29.6153C28.9224 105.365 28.258 105.09 27.7681 104.6C27.2782 104.11 27.0029 103.446 27.0029 102.753C27.0029 102.06 27.2782 101.395 27.7681 100.906C28.258 100.416 28.9224 100.14 29.6153 100.14H73.1542C73.8471 100.14 74.5115 100.416 75.0014 100.906C75.4913 101.395 75.7666 102.06 75.7666 102.753C75.7666 103.446 75.4913 104.11 75.0014 104.6C74.5115 105.09 73.8471 105.365 73.1542 105.365Z" fill="#2F80ED"/>
<path d="M69.6316 137.105C75.3723 137.105 80.026 132.451 80.026 126.711C80.026 120.97 75.3723 116.316 69.6316 116.316C63.8908 116.316 59.2371 120.97 59.2371 126.711C59.2371 132.451 63.8908 137.105 69.6316 137.105Z" fill="#2F80ED"/>
<path d="M68.2135 132.121C68.034 132.121 67.8569 132.079 67.6964 131.999C67.5359 131.918 67.3962 131.802 67.2886 131.658L64.4528 127.877C64.3615 127.756 64.295 127.617 64.2571 127.47C64.2193 127.323 64.2108 127.17 64.2322 127.019C64.2536 126.869 64.3045 126.724 64.3819 126.593C64.4592 126.463 64.5616 126.348 64.6832 126.257C64.8048 126.166 64.9431 126.1 65.0903 126.062C65.2376 126.024 65.3908 126.016 65.5412 126.038C65.6916 126.059 65.8363 126.11 65.967 126.188C66.0976 126.265 66.2117 126.368 66.3028 126.49L68.158 128.963L72.923 121.816C73.007 121.689 73.1152 121.58 73.2415 121.495C73.3677 121.41 73.5094 121.351 73.6586 121.321C73.8077 121.291 73.9613 121.29 74.1106 121.32C74.2599 121.349 74.4019 121.408 74.5285 121.492C74.6551 121.576 74.7638 121.685 74.8483 121.811C74.9329 121.938 74.9917 122.08 75.0213 122.229C75.0509 122.378 75.0507 122.532 75.0209 122.681C74.991 122.83 74.9319 122.972 74.8472 123.099L69.1756 131.606C69.073 131.76 68.935 131.887 68.7732 131.976C68.6114 132.066 68.4305 132.115 68.2456 132.12C68.2349 132.121 68.2242 132.121 68.2135 132.121Z" fill="white"/>
<path d="M47.4664 31.7844C50.1916 31.7844 52.4008 29.5751 52.4008 26.8499C52.4008 24.1247 50.1916 21.9155 47.4664 21.9155C44.7412 21.9155 42.532 24.1247 42.532 26.8499C42.532 29.5751 44.7412 31.7844 47.4664 31.7844Z" fill="#F2F2F2"/>
<path d="M29.4703 173.721C32.1955 173.721 34.4047 171.512 34.4047 168.787C34.4047 166.062 32.1955 163.853 29.4703 163.853C26.7451 163.853 24.5359 166.062 24.5359 168.787C24.5359 171.512 26.7451 173.721 29.4703 173.721Z" fill="#F2F2F2"/>
<path d="M142.962 50.9415C145.687 50.9415 147.896 48.7322 147.896 46.007C147.896 43.2818 145.687 41.0726 142.962 41.0726C140.236 41.0726 138.027 43.2818 138.027 46.007C138.027 48.7322 140.236 50.9415 142.962 50.9415Z" fill="#F2F2F2"/>
</g>
<defs>
<clipPath id="clip0_28_205">
<rect width="166.011" height="200" fill="white" transform="translate(0.849609)"/>
</clipPath>
</defs>
</svg>
