<svg width="50" height="51" viewBox="0 0 50 51" fill="none" xmlns="http://www.w3.org/2000/svg">
<path d="M35.4167 27.2834H27.0834V35.6167H22.9167V27.2834H14.5834V23.1167H22.9167V14.7834H27.0834V23.1167H35.4167M25.0001 4.3667C22.2642 4.3667 19.5551 4.90557 17.0275 5.95254C14.4999 6.99952 12.2032 8.53409 10.2687 10.4686C6.36168 14.3756 4.16675 19.6747 4.16675 25.2C4.16675 30.7254 6.36168 36.0244 10.2687 39.9314C12.2032 41.866 14.4999 43.4006 17.0275 44.4475C19.5551 45.4945 22.2642 46.0334 25.0001 46.0334C30.5254 46.0334 35.8245 43.8384 39.7315 39.9314C43.6385 36.0244 45.8334 30.7254 45.8334 25.2C45.8334 22.4642 45.2945 19.7551 44.2476 17.2275C43.2006 14.6998 41.666 12.4032 39.7315 10.4686C37.7969 8.53409 35.5003 6.99952 32.9727 5.95254C30.445 4.90557 27.736 4.3667 25.0001 4.3667V4.3667Z" fill="#2F80ED"/>
</svg>
