<svg
                            width="27" height="27" viewBox="0 0 27 27" fill="none" xmlns="http://www.w3.org/2000/svg">
                            <path
                                d="M18.8719 5.39971L23.1 9.62783C23.2781 9.80596 23.2781 10.0966 23.1 10.2747L12.8625 20.5122L8.5125 20.995C7.93125 21.0606 7.43906 20.5685 7.50469 19.9872L7.9875 15.6372L18.225 5.39971C18.4031 5.22158 18.6938 5.22158 18.8719 5.39971ZM26.4656 4.32627L24.1781 2.03877C23.4656 1.32627 22.3078 1.32627 21.5906 2.03877L19.9313 3.69814C19.7531 3.87627 19.7531 4.16689 19.9313 4.34502L24.1594 8.57314C24.3375 8.75127 24.6281 8.75127 24.8063 8.57314L26.4656 6.91377C27.1781 6.19658 27.1781 5.03877 26.4656 4.32627ZM18 17.7278V22.4997H3V7.49971H13.7719C13.9219 7.49971 14.0625 7.43877 14.1703 7.33564L16.0453 5.46064C16.4016 5.10439 16.1484 4.49971 15.6469 4.49971H2.25C1.00781 4.49971 0 5.50752 0 6.74971V23.2497C0 24.4919 1.00781 25.4997 2.25 25.4997H18.75C19.9922 25.4997 21 24.4919 21 23.2497V15.8528C21 15.3513 20.3953 15.1028 20.0391 15.4544L18.1641 17.3294C18.0609 17.4372 18 17.5778 18 17.7278Z"
                                fill="#0076BF" />
                        </svg>